<svg xmlns="http://www.w3.org/2000/svg" xmlns:xlink="http://www.w3.org/1999/xlink" width="1920" zoomAndPan="magnify" viewBox="0 0 1440 809.999993" height="1080" preserveAspectRatio="xMidYMid meet" version="1.2"><defs><clipPath id="65a9799225"><path d="M 243 622 L 708 622 L 708 665 L 243 665 Z M 243 622 "/></clipPath><clipPath id="1c2079f2e9"><path d="M 244.6875 608.933594 L 708.152344 635.929688 L 705.402344 683.101562 L 241.9375 656.105469 Z M 244.6875 608.933594 "/></clipPath><clipPath id="c65c34f727"><path d="M 244.6875 608.933594 L 708.152344 635.929688 L 705.402344 683.101562 L 241.9375 656.105469 Z M 244.6875 608.933594 "/></clipPath></defs><g id="f99f0e6a57"><rect x="0" width="1440" y="0" height="809.999993" style="fill:#ffffff;fill-opacity:1;stroke:none;"/><rect x="0" width="1440" y="0" height="809.999993" style="fill:#ffffff;fill-opacity:1;stroke:none;"/><g style="fill:#26221b;fill-opacity:1;"><g transform="translate(226.029623, 285.701871)"><path style="stroke:none" d="M 118.546875 -121.339844 L 72.5625 -118.90625 L 71.953125 -130.4375 L 52.179688 -129.390625 L 52.789062 -117.855469 L 6.207031 -115.390625 L 6.992188 -100.558594 L 119.332031 -106.511719 Z M 19.507812 -11.699219 L 95.300781 -15.710938 L 96.554688 7.953125 L 116.328125 6.90625 L 114.28125 -31.738281 L 18.714844 -26.675781 Z M 38.808594 -78.363281 C 38.5625 -83.007812 46.542969 -85.53125 64.367188 -86.476562 C 82.339844 -87.425781 90.539062 -85.757812 90.785156 -81.117188 C 91.039062 -76.324219 83.054688 -73.945312 65.082031 -72.996094 C 47.253906 -72.050781 39.0625 -73.570312 38.808594 -78.363281 Z M 76.070312 -52.699219 L 75.664062 -60.335938 C 98.953125 -63.070312 111.628906 -70.503906 111.007812 -82.1875 C 110.300781 -95.519531 93.160156 -101.519531 63.652344 -99.957031 C 34.292969 -98.402344 17.882812 -90.621094 18.585938 -77.292969 C 19.207031 -65.609375 32.445312 -59.550781 55.890625 -59.289062 L 56.296875 -51.648438 L 3.71875 -48.863281 L 4.53125 -33.585938 L 129.453125 -40.203125 L 128.644531 -55.480469 Z M 76.070312 -52.699219 "/></g></g><g style="fill:#26221b;fill-opacity:1;"><g transform="translate(351.25412, 279.069034)"><path style="stroke:none" d="M 53.855469 -117.613281 L 34.082031 -116.566406 L 35.144531 -96.492188 C 36.566406 -69.679688 26.59375 -42.414062 3.023438 -30.804688 L 15.722656 -15.101562 C 31.789062 -23.765625 42.234375 -39.1875 47.402344 -57.9375 C 54.441406 -41.335938 65.796875 -28.269531 82.054688 -21.921875 L 92.441406 -38.542969 C 68.542969 -47.339844 56.273438 -71.925781 54.917969 -97.542969 Z M 94.324219 -130.570312 L 101.65625 7.835938 L 121.429688 6.785156 L 114.097656 -131.621094 Z M 94.324219 -130.570312 "/></g></g><g style="fill:#26221b;fill-opacity:1;"><g transform="translate(476.47862, 272.436197)"><path style="stroke:none" d="M 22.890625 0.1875 C 19.378906 0.375 16.296875 -0.707031 13.640625 -3.0625 C 10.992188 -5.414062 9.59375 -8.367188 9.4375 -11.921875 C 9.226562 -15.398438 10.316406 -18.441406 12.703125 -21.046875 C 15.085938 -23.660156 18.035156 -25.0625 21.546875 -25.25 C 24.953125 -25.4375 27.988281 -24.351562 30.65625 -22 C 33.320312 -19.65625 34.765625 -16.75 34.984375 -13.28125 C 35.128906 -9.71875 34 -6.628906 31.59375 -4.015625 C 29.195312 -1.398438 26.296875 0 22.890625 0.1875 Z M 60.390625 -1.796875 C 56.878906 -1.617188 53.796875 -2.703125 51.140625 -5.046875 C 48.492188 -7.398438 47.09375 -10.351562 46.9375 -13.90625 C 46.726562 -17.382812 47.816406 -20.429688 50.203125 -23.046875 C 52.585938 -25.660156 55.535156 -27.054688 59.046875 -27.234375 C 62.453125 -27.421875 65.484375 -26.34375 68.140625 -24 C 70.804688 -21.65625 72.25 -18.742188 72.46875 -15.265625 C 72.613281 -11.710938 71.488281 -8.625 69.09375 -6 C 66.695312 -3.382812 63.796875 -1.984375 60.390625 -1.796875 Z M 97.9375 -3.796875 C 94.4375 -3.609375 91.359375 -4.6875 88.703125 -7.03125 C 86.046875 -9.382812 84.640625 -12.335938 84.484375 -15.890625 C 84.273438 -19.367188 85.363281 -22.414062 87.75 -25.03125 C 90.144531 -27.644531 93.09375 -29.046875 96.59375 -29.234375 C 100.007812 -29.410156 103.046875 -28.328125 105.703125 -25.984375 C 108.367188 -23.640625 109.8125 -20.726562 110.03125 -17.25 C 110.175781 -13.695312 109.050781 -10.609375 106.65625 -7.984375 C 104.257812 -5.367188 101.351562 -3.972656 97.9375 -3.796875 Z M 97.9375 -3.796875 "/></g></g><g style="fill:#26221b;fill-opacity:1;"><g transform="translate(578.472899, 267.033809)"><path style="stroke:none" d=""/></g></g><g style="fill:#26221b;fill-opacity:1;"><g transform="translate(600.625252, 265.860453)"><path style="stroke:none" d="M 13.785156 -77.1875 C 40.203125 -80.390625 56.984375 -89.691406 63.539062 -102.054688 C 71.367188 -90.453125 89.1875 -82.984375 115.792969 -82.589844 L 121.15625 -97.59375 C 96.214844 -97.777344 82.375 -103.800781 77.933594 -111.078125 L 114.332031 -113.003906 L 113.539062 -127.984375 L 11.382812 -122.574219 L 12.175781 -107.59375 L 48.277344 -109.507812 C 44.628906 -101.804688 31.503906 -94.347656 6.867188 -91.542969 Z M 68.46875 -3.328125 C 54.089844 -2.566406 46.820312 -3.683594 46.628906 -7.277344 C 46.433594 -11.019531 53.542969 -12.898438 67.921875 -13.660156 C 82.453125 -14.429688 89.871094 -13.320312 90.070312 -9.578125 C 90.261719 -5.984375 83 -4.097656 68.46875 -3.328125 Z M 67.230469 -26.695312 C 40.71875 -25.289062 25.632812 -18.03125 26.257812 -6.199219 C 26.886719 5.636719 42.648438 11.109375 69.160156 9.707031 C 95.972656 8.285156 111.066406 1.175781 110.441406 -10.65625 C 109.8125 -22.488281 94.042969 -28.113281 67.230469 -26.695312 Z M 75.761719 -55.683594 L 55.988281 -54.636719 L 56.503906 -44.902344 L 15.460938 -42.726562 L 16.238281 -28.046875 L 118.246094 -33.453125 L 117.46875 -48.128906 L 76.277344 -45.949219 Z M 74.714844 -75.457031 L 74.046875 -88.039062 L 54.273438 -86.992188 L 54.941406 -74.410156 L 2.664062 -71.640625 L 3.480469 -56.210938 L 128.554688 -62.835938 L 127.738281 -78.265625 Z M 74.714844 -75.457031 "/></g></g><g style="fill:#26221b;fill-opacity:1;"><g transform="translate(725.849761, 259.227615)"><path style="stroke:none" d="M 41.589844 -37.203125 C 31.253906 -36.65625 23.785156 -47.222656 22.699219 -67.746094 C 21.621094 -88.117188 27.929688 -99.417969 38.265625 -99.964844 C 48.453125 -100.503906 56.070312 -89.941406 57.148438 -69.570312 C 58.238281 -49.050781 51.777344 -37.742188 41.589844 -37.203125 Z M 37.320312 -117.789062 C 16.351562 -116.679688 2.074219 -96.996094 3.675781 -66.738281 C 5.285156 -36.332031 21.570312 -18.117188 42.542969 -19.226562 C 63.363281 -20.328125 77.785156 -40.171875 76.171875 -70.578125 C 74.570312 -100.835938 58.144531 -118.890625 37.320312 -117.789062 Z M 130.640625 -80.222656 L 110.566406 -79.160156 L 107.816406 -131.136719 L 88.042969 -130.089844 L 95.351562 7.867188 L 115.121094 6.820312 L 111.433594 -62.832031 L 131.503906 -63.894531 Z M 130.640625 -80.222656 "/></g></g><g style="fill:#26221b;fill-opacity:1;"><g transform="translate(851.074269, 252.594778)"><path style="stroke:none" d="M 44.617188 -33.90625 C 35.332031 -33.414062 28.109375 -39.34375 27.554688 -49.828125 C 26.996094 -60.3125 33.546875 -67.117188 42.832031 -67.609375 C 52.121094 -68.101562 59.203125 -62.019531 59.75 -51.683594 C 60.3125 -41.046875 53.90625 -34.398438 44.617188 -33.90625 Z M 41.984375 -83.636719 C 21.914062 -82.574219 7.65625 -68.148438 8.671875 -48.976562 C 9.703125 -29.503906 25.402344 -16.667969 45.476562 -17.730469 C 65.398438 -18.785156 79.503906 -33.203125 78.472656 -52.675781 C 77.457031 -71.847656 61.90625 -84.691406 41.984375 -83.636719 Z M 49.523438 -125.644531 L 29.75 -124.597656 L 30.703125 -106.625 L 0.144531 -105.003906 L 0.980469 -89.277344 L 81.265625 -93.53125 L 80.433594 -109.257812 L 50.476562 -107.671875 Z M 130.742188 -78.273438 L 110.96875 -77.226562 L 108.113281 -131.152344 L 88.34375 -130.105469 L 95.648438 7.851562 L 115.421875 6.804688 L 111.835938 -60.902344 L 131.609375 -61.949219 Z M 130.742188 -78.273438 "/></g></g><g style="fill:#26221b;fill-opacity:1;"><g transform="translate(976.298732, 245.961943)"><path style="stroke:none" d="M 112.9375 -94.003906 L 36.992188 -89.984375 L 35.277344 -122.335938 L 15.507812 -121.289062 L 18.054688 -73.207031 L 113.769531 -78.277344 Z M 38.792969 -33.296875 L 18.871094 -32.242188 L 21.054688 8.949219 L 118.867188 3.769531 L 118.023438 -12.109375 L 40.132812 -7.984375 Z M 3.371094 -58.308594 L 4.210938 -42.433594 L 129.136719 -49.050781 L 128.296875 -64.925781 Z M 3.371094 -58.308594 "/></g></g><g style="fill:#26221b;fill-opacity:1;"><g transform="translate(1101.528864, 239.328808)"><path style="stroke:none" d=""/></g></g><g style="fill:#26221b;fill-opacity:1;"><g transform="translate(350.636727, 435.172779)"><path style="stroke:none" d="M 32.839844 -95.71875 L 59.828125 -94.964844 L 58.144531 -34.6875 L 31.152344 -35.441406 Z M 11.226562 -20.394531 L 77.199219 -18.546875 L 79.757812 -110.011719 L 13.785156 -111.859375 Z M 136.695312 -69.402344 L 116.601562 -69.964844 L 118.054688 -121.847656 L 98.261719 -122.398438 L 94.402344 15.546875 L 114.195312 16.101562 L 116.144531 -53.621094 L 136.238281 -53.058594 Z M 136.695312 -69.402344 "/></g></g><g style="fill:#26221b;fill-opacity:1;"><g transform="translate(475.987711, 438.67998)"><path style="stroke:none" d="M 72.25 -120.578125 C 41.8125 -121.429688 22.035156 -111.777344 21.570312 -95.132812 C 21.097656 -78.339844 40.3125 -67.75 70.75 -66.898438 C 101.1875 -66.046875 121.109375 -75.542969 121.578125 -92.335938 C 122.046875 -108.980469 102.6875 -119.726562 72.25 -120.578125 Z M 71.828125 -105.433594 C 90.71875 -104.902344 101.40625 -100.703125 101.1875 -92.90625 C 100.96875 -85.109375 90.066406 -81.511719 71.171875 -82.042969 C 52.429688 -82.566406 41.742188 -86.765625 41.960938 -94.5625 C 42.179688 -102.359375 53.085938 -105.957031 71.828125 -105.433594 Z M 21.984375 -34.949219 L 20.675781 11.832031 L 116.039062 14.5 L 117.347656 -32.28125 Z M 97.425781 -17.382812 L 96.980469 -1.488281 L 40.453125 -3.070312 L 40.894531 -18.964844 Z M 8.152344 -60.695312 L 7.714844 -45.101562 L 132.464844 -41.613281 L 132.902344 -57.207031 Z M 8.152344 -60.695312 "/></g></g><g style="fill:#26221b;fill-opacity:1;"><g transform="translate(601.338696, 442.187181)"><path style="stroke:none" d="M 104.566406 -122.523438 L 100.691406 16.023438 L 120.484375 16.578125 L 124.359375 -121.96875 Z M 49.867188 -114.300781 C 29.023438 -114.882812 13.050781 -96.421875 12.203125 -66.132812 C 11.351562 -35.695312 26.265625 -16.222656 47.105469 -15.636719 C 67.949219 -15.054688 83.925781 -33.664062 84.777344 -64.105469 C 85.625 -94.390625 70.707031 -113.71875 49.867188 -114.300781 Z M 49.367188 -96.457031 C 59.5625 -96.171875 66.304688 -85.027344 65.734375 -64.636719 C 65.160156 -44.09375 57.804688 -33.347656 47.609375 -33.632812 C 37.414062 -33.917969 30.671875 -45.058594 31.246094 -65.601562 C 31.816406 -85.992188 39.171875 -96.742188 49.367188 -96.457031 Z M 49.367188 -96.457031 "/></g></g><g style="fill:#ff26b9;fill-opacity:1;"><g transform="translate(726.696575, 445.694575)"><path style="stroke:none" d=""/></g></g><g style="fill:#ff26b9;fill-opacity:1;"><g transform="translate(748.871494, 446.315008)"><path style="stroke:none" d=""/></g></g><g style="fill:#ff26b9;fill-opacity:1;"><g transform="translate(771.046405, 446.935441)"><path style="stroke:none" d="M 68.566406 0.417969 C 49.523438 -0.113281 40.746094 -2.910156 40.90625 -8.609375 C 41.066406 -14.308594 49.980469 -16.457031 69.023438 -15.925781 C 88.214844 -15.390625 96.996094 -12.742188 96.835938 -7.042969 C 96.675781 -1.347656 87.757812 0.953125 68.566406 0.417969 Z M 69.429688 -30.46875 C 39.140625 -31.316406 21.378906 -24.011719 20.964844 -9.167969 C 20.554688 5.527344 37.875 13.964844 68.164062 14.8125 C 98.601562 15.664062 116.367188 8.207031 116.777344 -6.488281 C 117.191406 -21.332031 99.867188 -29.617188 69.429688 -30.46875 Z M 80.078125 -51.78125 L 80.320312 -60.328125 L 119.753906 -59.222656 L 120.171875 -74.21875 L 43.703125 -76.359375 L 43.914062 -83.855469 L 116.183594 -81.832031 L 116.585938 -96.226562 L 44.316406 -98.25 L 44.515625 -105.445312 L 119.9375 -103.335938 L 120.355469 -118.332031 L 25.292969 -120.988281 L 23.640625 -61.914062 L 60.527344 -60.882812 L 60.289062 -52.335938 L 7.808594 -53.800781 L 7.375 -38.359375 L 132.277344 -34.863281 L 132.707031 -50.308594 Z M 80.078125 -51.78125 "/></g></g><g style="fill:#ff26b9;fill-opacity:1;"><g transform="translate(896.39739, 450.442643)"><path style="stroke:none" d="M 47.210938 -30.191406 C 37.917969 -30.453125 31.195312 -36.941406 31.488281 -47.4375 C 31.78125 -57.933594 38.859375 -64.1875 48.15625 -63.929688 C 57.453125 -63.667969 64.019531 -57.03125 63.730469 -46.6875 C 63.433594 -36.039062 56.507812 -29.929688 47.210938 -30.191406 Z M 48.605469 -79.972656 C 28.511719 -80.535156 13.136719 -67.308594 12.601562 -48.117188 C 12.054688 -28.625 26.667969 -14.558594 46.761719 -13.996094 C 66.703125 -13.441406 81.929688 -26.667969 82.472656 -46.160156 C 83.011719 -65.355469 68.546875 -79.414062 48.605469 -79.972656 Z M 59.515625 -121.234375 L 39.722656 -121.785156 L 39.21875 -103.792969 L 8.628906 -104.648438 L 8.191406 -88.90625 L 88.558594 -86.65625 L 89 -102.402344 L 59.011719 -103.238281 Z M 136.640625 -67.453125 L 116.847656 -68.007812 L 118.359375 -121.988281 L 98.566406 -122.542969 L 94.703125 15.554688 L 114.496094 16.109375 L 116.390625 -51.664062 L 136.183594 -51.109375 Z M 136.640625 -67.453125 "/></g></g><g style="fill:#ff26b9;fill-opacity:1;"><g transform="translate(1021.748375, 453.949844)"><path style="stroke:none" d="M 59.617188 -60.605469 L 33.378906 -61.339844 L 34.398438 -97.777344 L 60.636719 -97.042969 Z M 104.5625 -84.859375 L 104.175781 -70.914062 L 79.285156 -71.609375 L 79.675781 -85.554688 Z M 78.84375 -55.867188 L 103.734375 -55.171875 L 102.796875 -21.734375 L 122.589844 -21.179688 L 125.40625 -121.789062 L 105.613281 -122.34375 L 105.003906 -100.601562 L 80.113281 -101.300781 L 80.414062 -111.945312 L 15.335938 -113.765625 L 13.449219 -46.292969 L 78.523438 -44.472656 Z M 50.675781 -3.835938 L 51.484375 -32.621094 L 31.691406 -33.175781 L 30.445312 11.355469 L 124.609375 13.992188 L 125.046875 -1.753906 Z M 50.675781 -3.835938 "/></g></g><g style="fill:#ff26b9;fill-opacity:1;"><g transform="translate(1147.099349, 457.457045)"><path style="stroke:none" d="M 29.453125 -31.890625 L 29.5 -33.703125 C 29.707031 -39.921875 30.40625 -44.859375 31.59375 -48.515625 C 32.78125 -52.179688 34.441406 -55.109375 36.578125 -57.296875 C 38.710938 -59.492188 41.300781 -61.488281 44.34375 -63.28125 C 47.664062 -65.289062 50.476562 -67.492188 52.78125 -69.890625 C 55.09375 -72.296875 56.300781 -75.238281 56.40625 -78.71875 C 56.507812 -82.414062 55.320312 -85.410156 52.84375 -87.703125 C 50.363281 -89.992188 47.328125 -91.1875 43.734375 -91.28125 C 40.253906 -91.382812 37.109375 -90.335938 34.296875 -88.140625 C 31.484375 -85.941406 29.929688 -82.679688 29.640625 -78.359375 L 7.921875 -78.96875 C 8.296875 -86.0625 10.160156 -91.882812 13.515625 -96.4375 C 16.878906 -101 21.253906 -104.335938 26.640625 -106.453125 C 32.023438 -108.578125 37.929688 -109.550781 44.359375 -109.375 C 51.421875 -109.175781 57.632812 -107.835938 63 -105.359375 C 68.363281 -102.890625 72.53125 -99.410156 75.5 -94.921875 C 78.46875 -90.429688 79.863281 -85.082031 79.6875 -78.875 C 79.507812 -72.625 77.863281 -67.460938 74.75 -63.390625 C 71.632812 -59.328125 67.546875 -55.894531 62.484375 -53.09375 C 58.234375 -50.6875 55.09375 -48.054688 53.0625 -45.203125 C 51.03125 -42.347656 49.90625 -38.328125 49.6875 -33.140625 L 49.640625 -31.328125 Z M 39 2.484375 C 35.476562 2.378906 32.488281 1.050781 30.03125 -1.5 C 27.582031 -4.0625 26.425781 -7.117188 26.5625 -10.671875 C 26.625 -14.148438 27.945312 -17.09375 30.53125 -19.5 C 33.125 -21.914062 36.179688 -23.070312 39.703125 -22.96875 C 43.109375 -22.875 46.046875 -21.550781 48.515625 -19 C 50.992188 -16.445312 52.195312 -13.429688 52.125 -9.953125 C 52 -6.398438 50.628906 -3.414062 48.015625 -1 C 45.410156 1.414062 42.40625 2.578125 39 2.484375 Z M 39 2.484375 "/></g></g><g clip-rule="nonzero" clip-path="url(#65a9799225)"><g clip-rule="nonzero" clip-path="url(#1c2079f2e9)"><g clip-rule="nonzero" clip-path="url(#c65c34f727)"><path style=" stroke:none;fill-rule:nonzero;fill:#ff26b9;fill-opacity:1;" d="M 531.835938 626.3125 C 430.101562 622.65625 332.703125 621.226562 285.609375 622.828125 C 255.542969 623.839844 243.726562 625.421875 243.558594 628.273438 C 243.492188 629.453125 244.777344 629.527344 251.582031 628.738281 C 280.097656 625.367188 347.574219 625.253906 471.085938 628.695312 C 547.378906 630.773438 693.050781 639.257812 686.476562 641.242188 C 683.441406 642.152344 658.699219 642.191406 571.695312 641.464844 C 403.449219 640.050781 374 640.707031 373.703125 645.820312 C 373.496094 649.359375 379.46875 650.890625 413.851562 655.953125 C 425.96875 657.746094 436.292969 659.628906 436.761719 660.152344 C 437.226562 660.671875 432.507812 661.480469 426.21875 662.003906 C 409.835938 663.515625 408.234375 663.71875 408.890625 664.351562 C 410.011719 665.597656 431.617188 664.882812 439.558594 663.273438 C 442.675781 662.667969 443.402344 662.117188 443.207031 660.328125 C 442.988281 657.257812 438.585938 656.113281 412.199219 651.910156 C 385.21875 647.675781 382.289062 646.8125 393.035156 646.550781 C 417.21875 645.886719 468.101562 645.792969 553.527344 646.328125 C 672.621094 647.144531 694.589844 646.945312 703.9375 645.121094 C 706.855469 644.5 707.6875 643.859375 707.792969 642.089844 C 707.964844 639.140625 706.402344 638.652344 690.335938 636.433594 C 672.78125 634.128906 576.0625 627.902344 531.835938 626.3125 Z M 531.835938 626.3125 "/></g></g></g><g style="fill:#26221b;fill-opacity:1;"><g transform="translate(240.951881, 606.471138)"><path style="stroke:none" d="M 4.867188 -18.71875 C 11.425781 -19 15.730469 -20.964844 17.578125 -23.878906 C 19.28125 -20.875 23.519531 -18.699219 30.054688 -18.09375 L 31.660156 -21.679688 C 25.53125 -22.203125 22.242188 -23.949219 21.289062 -25.824219 L 30.277344 -25.601562 L 30.371094 -29.300781 L 5.144531 -29.921875 L 5.054688 -26.226562 L 13.96875 -26.003906 C 12.921875 -24.179688 9.550781 -22.597656 3.441406 -22.378906 Z M 16.902344 0.492188 C 13.351562 0.40625 11.585938 -0.0078125 11.605469 -0.898438 C 11.628906 -1.820312 13.414062 -2.148438 16.964844 -2.058594 C 20.550781 -1.972656 22.355469 -1.554688 22.332031 -0.632812 C 22.308594 0.257812 20.488281 0.582031 16.902344 0.492188 Z M 17.042969 -5.277344 C 10.496094 -5.441406 6.648438 -3.945312 6.574219 -1.023438 C 6.503906 1.902344 10.273438 3.546875 16.820312 3.710938 C 23.441406 3.875 27.289062 2.414062 27.363281 -0.507812 C 27.433594 -3.429688 23.664062 -5.113281 17.042969 -5.277344 Z M 19.695312 -12.242188 L 14.8125 -12.363281 L 14.753906 -9.960938 L 4.621094 -10.210938 L 4.53125 -6.585938 L 29.71875 -5.964844 L 29.808594 -9.585938 L 19.636719 -9.839844 Z M 19.816406 -17.125 L 19.894531 -20.234375 L 15.011719 -20.351562 L 14.933594 -17.246094 L 2.027344 -17.566406 L 1.933594 -13.757812 L 32.816406 -12.992188 L 32.910156 -16.800781 Z M 19.816406 -17.125 "/></g></g><g style="fill:#26221b;fill-opacity:1;"><g transform="translate(271.722826, 607.232867)"><path style="stroke:none" d="M 10.9375 -8.351562 C 8.386719 -8.414062 6.753906 -11.15625 6.878906 -16.226562 C 7.003906 -21.253906 8.769531 -23.914062 11.324219 -23.847656 C 13.839844 -23.789062 15.507812 -21.042969 15.386719 -16.015625 C 15.257812 -10.945312 13.453125 -8.289062 10.9375 -8.351562 Z M 11.433594 -28.25 C 6.253906 -28.378906 2.367188 -23.8125 2.179688 -16.339844 C 1.996094 -8.832031 5.652344 -4.042969 10.828125 -3.914062 C 15.96875 -3.785156 19.894531 -8.390625 20.082031 -15.898438 C 20.265625 -23.367188 16.574219 -28.125 11.433594 -28.25 Z M 33.660156 -17.226562 L 28.703125 -17.351562 L 29.023438 -30.183594 L 24.140625 -30.304688 L 23.296875 3.757812 L 28.179688 3.878906 L 28.605469 -13.316406 L 33.5625 -13.195312 Z M 33.660156 -17.226562 "/></g></g><g style="fill:#26221b;fill-opacity:1;"><g transform="translate(302.493771, 607.994596)"><path style="stroke:none" d="M 11.621094 -7.484375 C 9.328125 -7.539062 7.664062 -9.136719 7.730469 -11.726562 C 7.792969 -14.316406 9.535156 -15.863281 11.828125 -15.804688 C 14.121094 -15.75 15.746094 -14.117188 15.683594 -11.566406 C 15.617188 -8.941406 13.914062 -7.425781 11.621094 -7.484375 Z M 11.925781 -19.761719 C 6.96875 -19.886719 3.1875 -16.613281 3.070312 -11.878906 C 2.949219 -7.070312 6.566406 -3.613281 11.523438 -3.488281 C 16.441406 -3.367188 20.1875 -6.644531 20.304688 -11.453125 C 20.421875 -16.183594 16.84375 -19.640625 11.925781 -19.761719 Z M 14.582031 -29.949219 L 9.699219 -30.070312 L 9.589844 -25.632812 L 2.046875 -25.820312 L 1.949219 -21.933594 L 21.773438 -21.445312 L 21.871094 -25.328125 L 14.472656 -25.511719 Z M 33.648438 -16.746094 L 28.765625 -16.867188 L 29.097656 -30.183594 L 24.214844 -30.304688 L 23.371094 3.761719 L 28.253906 3.882812 L 28.667969 -12.835938 L 33.546875 -12.714844 Z M 33.648438 -16.746094 "/></g></g><g style="fill:#26221b;fill-opacity:1;"><g transform="translate(333.264716, 608.756325)"><path style="stroke:none" d="M 29.570312 -20.957031 L 10.820312 -21.417969 L 11.015625 -29.410156 L 6.132812 -29.527344 L 5.839844 -17.65625 L 29.472656 -17.070312 Z M 10.175781 -7.445312 L 5.257812 -7.566406 L 5.003906 2.601562 L 29.15625 3.203125 L 29.253906 -0.71875 L 10.023438 -1.195312 Z M 1.945312 -14.273438 L 1.847656 -10.355469 L 32.695312 -9.589844 L 32.792969 -13.511719 Z M 1.945312 -14.273438 "/></g></g><g style="fill:#26221b;fill-opacity:1;"><g transform="translate(364.043074, 609.518237)"><path style="stroke:none" d=""/></g></g><g style="fill:#26221b;fill-opacity:1;"><g transform="translate(369.364434, 609.649967)"><path style="stroke:none" d=""/></g></g><g style="fill:#26221b;fill-opacity:1;"><g transform="translate(374.692159, 609.781853)"><path style="stroke:none" d="M 8.023438 -23.636719 L 14.679688 -23.46875 L 14.3125 -8.601562 L 7.65625 -8.765625 Z M 2.753906 -5.039062 L 19.027344 -4.636719 L 19.585938 -27.199219 L 3.3125 -27.601562 Z M 33.660156 -17.226562 L 28.703125 -17.351562 L 29.019531 -30.148438 L 24.140625 -30.269531 L 23.296875 3.757812 L 28.179688 3.878906 L 28.605469 -13.316406 L 33.5625 -13.195312 Z M 33.660156 -17.226562 "/></g></g><g style="fill:#26221b;fill-opacity:1;"><g transform="translate(405.463104, 610.543582)"><path style="stroke:none" d="M 17.726562 -29.796875 C 10.214844 -29.984375 5.347656 -27.585938 5.246094 -23.480469 C 5.140625 -19.339844 9.890625 -16.742188 17.398438 -16.554688 C 24.90625 -16.371094 29.8125 -18.730469 29.914062 -22.871094 C 30.015625 -26.976562 25.234375 -29.613281 17.726562 -29.796875 Z M 17.632812 -26.0625 C 22.292969 -25.945312 24.933594 -24.917969 24.882812 -22.996094 C 24.835938 -21.074219 22.148438 -20.175781 17.488281 -20.292969 C 12.867188 -20.40625 10.226562 -21.433594 10.273438 -23.355469 C 10.320312 -25.28125 13.007812 -26.175781 17.632812 -26.0625 Z M 5.394531 -8.636719 L 5.109375 2.902344 L 28.632812 3.484375 L 28.917969 -8.054688 Z M 24.015625 -4.363281 L 23.917969 -0.445312 L 9.976562 -0.789062 L 10.070312 -4.710938 Z M 1.960938 -14.976562 L 1.867188 -11.128906 L 32.640625 -10.367188 L 32.734375 -14.214844 Z M 1.960938 -14.976562 "/></g></g><g style="fill:#26221b;fill-opacity:1;"><g transform="translate(436.234049, 611.305311)"><path style="stroke:none" d="M 17.640625 -26.394531 C 22.597656 -26.273438 24.910156 -25.511719 24.871094 -23.996094 C 24.832031 -22.40625 22.484375 -21.796875 17.53125 -21.917969 C 12.609375 -22.042969 10.296875 -22.765625 10.335938 -24.355469 C 10.375 -25.871094 12.722656 -26.515625 17.640625 -26.394531 Z M 17.441406 -18.367188 C 25.246094 -18.175781 29.84375 -20.097656 29.9375 -23.871094 C 30.03125 -27.605469 25.535156 -29.789062 17.730469 -29.980469 C 9.960938 -30.175781 5.363281 -28.214844 5.269531 -24.480469 C 5.175781 -20.707031 9.675781 -18.5625 17.441406 -18.367188 Z M 10.050781 -2.414062 L 28.691406 -1.953125 L 28.910156 -10.71875 L 5.386719 -11.300781 L 5.296875 -7.714844 L 24.011719 -7.25 L 23.96875 -5.4375 L 5.289062 -5.902344 L 5.070312 3.050781 L 29.441406 3.652344 L 29.535156 -0.0078125 L 10.003906 -0.492188 Z M 2.015625 -17.121094 L 1.921875 -13.3125 L 32.695312 -12.550781 L 32.789062 -16.359375 Z M 2.015625 -17.121094 "/></g></g><g style="fill:#26221b;fill-opacity:1;"><g transform="translate(467.007625, 612.067105)"><path style="stroke:none" d=""/></g></g><g style="fill:#26221b;fill-opacity:1;"><g transform="translate(472.328985, 612.198835)"><path style="stroke:none" d=""/></g></g><g style="fill:#26221b;fill-opacity:1;"><g transform="translate(477.656703, 612.330721)"><path style="stroke:none" d="M 10.050781 -2.414062 L 28.691406 -1.953125 L 28.910156 -10.683594 L 5.386719 -11.265625 L 5.296875 -7.675781 L 24.011719 -7.214844 L 23.96875 -5.4375 L 5.289062 -5.902344 L 5.070312 3.050781 L 29.441406 3.652344 L 29.535156 -0.0078125 L 10.003906 -0.492188 Z M 10.820312 -25.898438 L 24.320312 -25.5625 L 24.238281 -22.34375 L 10.738281 -22.679688 Z M 19.765625 -16.496094 L 19.820312 -18.71875 L 28.917969 -18.492188 L 29.183594 -29.179688 L 6.140625 -29.75 L 5.875 -19.0625 L 14.9375 -18.835938 L 14.882812 -16.617188 L 2.011719 -16.9375 L 1.914062 -13.089844 L 32.6875 -12.328125 L 32.78125 -16.175781 Z M 19.765625 -16.496094 "/></g></g><g style="fill:#26221b;fill-opacity:1;"><g transform="translate(508.427648, 613.09245)"><path style="stroke:none" d="M 7.605469 -14.207031 L 15.707031 -14.007812 L 16.03125 -27.210938 L 3.160156 -27.53125 L 3.0625 -23.609375 L 11.238281 -23.40625 L 11.101562 -17.96875 L 2.964844 -18.171875 L 2.625 -4.300781 L 5.027344 -4.242188 C 9.132812 -4.140625 12.835938 -4.160156 17.214844 -4.753906 L 16.945312 -8.722656 C 13.527344 -8.289062 10.566406 -8.175781 7.457031 -8.179688 Z M 26.953125 -30.273438 L 26.632812 -17.402344 L 23.5625 -17.476562 L 23.867188 -29.71875 L 19.316406 -29.832031 L 18.527344 2.011719 L 23.078125 2.125 L 23.464844 -13.554688 L 26.535156 -13.480469 L 26.109375 3.792969 L 30.730469 3.90625 L 31.574219 -30.15625 Z M 26.953125 -30.273438 "/></g></g><g style="fill:#26221b;fill-opacity:1;"><g transform="translate(539.208157, 613.854416)"><path style="stroke:none" d=""/></g></g><g style="fill:#26221b;fill-opacity:1;"><g transform="translate(544.529517, 613.986145)"><path style="stroke:none" d=""/></g></g><g style="fill:#26221b;fill-opacity:1;"><g transform="translate(549.857241, 614.118032)"><path style="stroke:none" d="M 20.40625 -21.589844 L 20.308594 -17.632812 L 25.636719 -17.5 L 25.335938 -5.40625 L 30.21875 -5.285156 L 30.835938 -30.140625 L 25.953125 -30.261719 L 25.734375 -21.457031 Z M 22.46875 -13.691406 C 17.152344 -15.636719 14.925781 -19.875 15.023438 -23.90625 L 15.035156 -24.351562 L 21.65625 -24.1875 L 21.753906 -28.070312 L 3.445312 -28.523438 L 3.347656 -24.640625 L 10.042969 -24.472656 L 10.03125 -23.992188 C 9.925781 -19.703125 7.375 -15.289062 1.742188 -13.613281 L 4.089844 -9.667969 C 8.117188 -10.902344 10.84375 -13.535156 12.445312 -16.863281 C 13.8125 -13.757812 16.304688 -11.253906 20.007812 -9.941406 Z M 12.535156 -0.984375 L 12.703125 -7.789062 L 7.820312 -7.910156 L 7.554688 2.777344 L 30.78125 3.351562 L 30.878906 -0.53125 Z M 12.535156 -0.984375 "/></g></g><g style="fill:#26221b;fill-opacity:1;"><g transform="translate(580.628186, 614.879761)"><path style="stroke:none" d="M 9.96875 -7.96875 C 8.117188 -8.015625 6.824219 -9.527344 6.886719 -12.078125 C 6.949219 -14.632812 8.320312 -16.113281 10.167969 -16.070312 C 12.015625 -16.023438 13.3125 -14.472656 13.25 -11.921875 C 13.183594 -9.371094 11.816406 -7.921875 9.96875 -7.96875 Z M 10.269531 -20.136719 C 5.90625 -20.246094 2.714844 -16.957031 2.597656 -12.1875 C 2.480469 -7.453125 5.503906 -4.007812 9.867188 -3.902344 C 14.230469 -3.792969 17.421875 -7.082031 17.539062 -11.816406 C 17.65625 -16.585938 14.632812 -20.03125 10.269531 -20.136719 Z M 12.910156 -29.65625 L 8.101562 -29.777344 L 7.996094 -25.558594 L 2.191406 -25.703125 L 2.09375 -21.820312 L 18.367188 -21.417969 L 18.464844 -25.300781 L 12.804688 -25.441406 Z M 26.953125 -30.273438 L 26.605469 -16.367188 L 24.019531 -16.429688 L 24.347656 -29.671875 L 19.796875 -29.78125 L 19.003906 2.210938 L 23.554688 2.324219 L 23.921875 -12.507812 L 26.511719 -12.445312 L 26.109375 3.792969 L 30.730469 3.90625 L 31.574219 -30.15625 Z M 26.953125 -30.273438 "/></g></g><g style="fill:#26221b;fill-opacity:1;"><g transform="translate(611.399131, 615.64149)"><path style="stroke:none" d="M 10.175781 -19.398438 L 24.75 -19.039062 L 24.632812 -14.269531 L 10.058594 -14.628906 Z M 19.535156 -4.253906 L 19.691406 -10.503906 L 29.34375 -10.265625 L 29.785156 -28.054688 L 24.976562 -28.175781 L 24.84375 -22.886719 L 10.273438 -23.246094 L 10.402344 -28.535156 L 5.558594 -28.65625 L 5.117188 -10.863281 L 14.808594 -10.625 L 14.652344 -4.375 L 1.707031 -4.695312 L 1.609375 -0.738281 L 32.457031 0.0273438 L 32.554688 -3.929688 Z M 19.535156 -4.253906 "/></g></g><g style="fill:#26221b;fill-opacity:1;"><g transform="translate(642.170076, 616.403219)"><path style="stroke:none" d="M 13.15625 -27.617188 L 8.457031 -27.730469 L 8.316406 -22 C 8.171875 -16.191406 6.210938 -10.132812 1.140625 -7.226562 L 3.972656 -3.492188 C 7.089844 -5.265625 9.164062 -8.46875 10.441406 -12.214844 C 11.429688 -8.746094 13.171875 -5.816406 16.011719 -3.96875 L 18.769531 -7.675781 C 14.222656 -10.863281 12.882812 -16.558594 13.019531 -22.066406 Z M 19.75 -18.902344 L 15.496094 -19.007812 L 15.398438 -15.050781 L 19.652344 -14.945312 L 19.230469 2.140625 L 23.777344 2.253906 L 24.570312 -29.738281 L 20.019531 -29.851562 Z M 26.949219 -30.234375 L 26.109375 3.828125 L 30.730469 3.945312 L 31.574219 -30.121094 Z M 26.949219 -30.234375 "/></g></g><g style="fill:#26221b;fill-opacity:1;"><g transform="translate(672.941021, 617.164948)"><path style="stroke:none" d="M 13.519531 -10.917969 C 14.699219 -10.664062 15.914062 -10.523438 17.246094 -10.492188 C 18.578125 -10.457031 19.839844 -10.539062 21.027344 -10.730469 L 20.867188 -4.21875 L 13.359375 -4.40625 Z M 17.605469 -24.953125 C 22.339844 -24.835938 25.472656 -22.832031 25.386719 -19.429688 C 25.304688 -16.066406 22.074219 -14.183594 17.339844 -14.300781 C 12.605469 -14.417969 9.511719 -16.457031 9.59375 -19.820312 C 9.679688 -23.222656 12.871094 -25.070312 17.605469 -24.953125 Z M 25.710938 -4.101562 L 25.917969 -12.421875 C 28.507812 -13.949219 30.121094 -16.351562 30.195312 -19.3125 C 30.335938 -24.894531 25.058594 -28.617188 17.699219 -28.796875 C 10.375 -28.980469 4.925781 -25.523438 4.785156 -19.941406 C 4.675781 -16.980469 6.167969 -14.503906 8.71875 -12.847656 L 8.511719 -4.527344 L 1.707031 -4.695312 L 1.609375 -0.738281 L 32.457031 0.0273438 L 32.554688 -3.929688 Z M 25.710938 -4.101562 "/></g></g><g style="fill:#26221b;fill-opacity:1;"><g transform="translate(703.711963, 617.926677)"><path style="stroke:none" d="M 5.484375 0.484375 C 4.617188 0.460938 3.882812 0.140625 3.28125 -0.484375 C 2.675781 -1.117188 2.390625 -1.875 2.421875 -2.75 C 2.429688 -3.601562 2.753906 -4.328125 3.390625 -4.921875 C 4.023438 -5.523438 4.773438 -5.816406 5.640625 -5.796875 C 6.484375 -5.773438 7.207031 -5.445312 7.8125 -4.8125 C 8.425781 -4.1875 8.726562 -3.445312 8.71875 -2.59375 C 8.6875 -1.71875 8.347656 -0.976562 7.703125 -0.375 C 7.066406 0.21875 6.328125 0.503906 5.484375 0.484375 Z M 5.484375 0.484375 "/></g></g><g style="fill:#26221b;fill-opacity:1;"><g transform="translate(710.202642, 618.087352)"><path style="stroke:none" d=""/></g></g><g style="fill:#26221b;fill-opacity:1;"><g transform="translate(715.524002, 618.219082)"><path style="stroke:none" d=""/></g></g><g style="fill:#26221b;fill-opacity:1;"><g transform="translate(720.851726, 618.350968)"><path style="stroke:none" d="M 15.085938 -27.902344 L 10.167969 -28.023438 L 10.046875 -23.105469 C 9.886719 -16.632812 7.132812 -10.074219 1.296875 -7.554688 L 4.234375 -3.558594 C 8.089844 -5.386719 10.730469 -8.875 12.316406 -13.203125 C 13.621094 -9.0625 16.015625 -5.671875 19.707031 -3.769531 L 22.6875 -7.582031 C 17.128906 -10.234375 14.804688 -16.546875 14.964844 -22.980469 Z M 26.0625 -30.292969 L 25.800781 -19.605469 L 19.253906 -19.765625 L 19.15625 -15.847656 L 25.703125 -15.683594 L 25.21875 3.882812 L 30.101562 4 L 30.945312 -30.171875 Z M 26.0625 -30.292969 "/></g></g><g style="fill:#26221b;fill-opacity:1;"><g transform="translate(751.622671, 619.112697)"><path style="stroke:none" d="M 19.53125 -4.070312 L 19.65625 -9.136719 L 29.976562 -8.878906 L 30.070312 -12.800781 L 10.320312 -13.289062 L 10.414062 -17.097656 L 29.390625 -16.628906 L 29.671875 -27.984375 L 5.816406 -28.574219 L 5.71875 -24.691406 L 24.765625 -24.21875 L 24.675781 -20.558594 L 5.664062 -21.027344 L 5.378906 -9.488281 L 14.773438 -9.257812 L 14.648438 -4.191406 L 1.703125 -4.511719 L 1.605469 -0.515625 L 32.449219 0.25 L 32.550781 -3.746094 Z M 19.53125 -4.070312 "/></g></g><g style="fill:#26221b;fill-opacity:1;"><g transform="translate(782.403181, 619.874663)"><path style="stroke:none" d=""/></g></g><g style="fill:#26221b;fill-opacity:1;"><g transform="translate(787.724541, 620.006392)"><path style="stroke:none" d=""/></g></g><g style="fill:#26221b;fill-opacity:1;"><g transform="translate(793.052258, 620.138279)"><path style="stroke:none" d="M 16.910156 0.046875 C 12.214844 -0.0664062 10.046875 -0.75 10.082031 -2.15625 C 10.117188 -3.5625 12.3125 -4.097656 17.011719 -3.984375 C 21.746094 -3.867188 23.914062 -3.21875 23.878906 -1.816406 C 23.84375 -0.410156 21.644531 0.164062 16.910156 0.046875 Z M 17.101562 -7.570312 C 9.628906 -7.753906 5.253906 -5.9375 5.164062 -2.277344 C 5.074219 1.347656 9.351562 3.414062 16.824219 3.597656 C 24.332031 3.785156 28.707031 1.933594 28.796875 -1.691406 C 28.886719 -5.355469 24.609375 -7.382812 17.101562 -7.570312 Z M 19.710938 -12.835938 L 19.761719 -14.945312 L 29.488281 -14.703125 L 29.582031 -18.402344 L 10.71875 -18.867188 L 10.765625 -20.71875 L 28.589844 -20.277344 L 28.679688 -23.828125 L 10.851562 -24.269531 L 10.894531 -26.042969 L 29.5 -25.582031 L 29.589844 -29.28125 L 6.140625 -29.863281 L 5.78125 -15.289062 L 14.878906 -15.0625 L 14.828125 -12.957031 L 1.882812 -13.277344 L 1.789062 -9.46875 L 32.597656 -8.703125 L 32.691406 -12.515625 Z M 19.710938 -12.835938 "/></g></g><g style="fill:#26221b;fill-opacity:1;"><g transform="translate(823.823203, 620.900008)"><path style="stroke:none" d="M 11.621094 -7.484375 C 9.328125 -7.539062 7.664062 -9.136719 7.730469 -11.726562 C 7.792969 -14.316406 9.535156 -15.863281 11.828125 -15.804688 C 14.121094 -15.75 15.746094 -14.117188 15.683594 -11.566406 C 15.617188 -8.941406 13.914062 -7.425781 11.621094 -7.484375 Z M 11.925781 -19.761719 C 6.96875 -19.886719 3.1875 -16.613281 3.070312 -11.878906 C 2.949219 -7.070312 6.566406 -3.613281 11.523438 -3.488281 C 16.441406 -3.367188 20.1875 -6.644531 20.304688 -11.453125 C 20.421875 -16.183594 16.84375 -19.640625 11.925781 -19.761719 Z M 14.582031 -29.949219 L 9.699219 -30.070312 L 9.589844 -25.632812 L 2.046875 -25.820312 L 1.949219 -21.933594 L 21.773438 -21.445312 L 21.871094 -25.328125 L 14.472656 -25.511719 Z M 33.648438 -16.746094 L 28.765625 -16.867188 L 29.097656 -30.183594 L 24.214844 -30.304688 L 23.371094 3.761719 L 28.253906 3.882812 L 28.667969 -12.835938 L 33.546875 -12.714844 Z M 33.648438 -16.746094 "/></g></g><g style="fill:#26221b;fill-opacity:1;"><g transform="translate(854.594148, 621.661737)"><path style="stroke:none" d="M 14.65625 -14.996094 L 8.183594 -15.15625 L 8.40625 -24.144531 L 14.878906 -23.984375 Z M 25.722656 -21.011719 L 25.636719 -17.574219 L 19.5 -17.726562 L 19.582031 -21.164062 Z M 19.402344 -13.84375 L 25.542969 -13.691406 L 25.335938 -5.441406 L 30.21875 -5.320312 L 30.835938 -30.140625 L 25.953125 -30.261719 L 25.820312 -24.898438 L 19.679688 -25.050781 L 19.746094 -27.675781 L 3.691406 -28.074219 L 3.28125 -11.429688 L 19.332031 -11.03125 Z M 12.496094 -0.984375 L 12.671875 -8.085938 L 7.789062 -8.207031 L 7.519531 2.777344 L 30.746094 3.351562 L 30.839844 -0.53125 Z M 12.496094 -0.984375 "/></g></g><g style="fill:#26221b;fill-opacity:1;"><g transform="translate(885.365092, 622.423466)"><path style="stroke:none" d="M 8.40625 -3.46875 L 8.234375 -2.03125 C 8.085938 -0.875 7.835938 0.269531 7.484375 1.40625 C 7.140625 2.550781 6.78125 3.585938 6.40625 4.515625 C 6.039062 5.441406 5.75 6.171875 5.53125 6.703125 L 1.90625 6.609375 C 2.050781 6.109375 2.242188 5.398438 2.484375 4.484375 C 2.734375 3.566406 2.972656 2.535156 3.203125 1.390625 C 3.441406 0.242188 3.597656 -0.921875 3.671875 -2.109375 L 3.78125 -3.578125 Z M 8.40625 -3.46875 "/></g></g><g style="fill:#26221b;fill-opacity:1;"><g transform="translate(892.057084, 622.589125)"><path style="stroke:none" d=""/></g></g><g style="fill:#26221b;fill-opacity:1;"><g transform="translate(897.378444, 622.720854)"><path style="stroke:none" d=""/></g></g><g style="fill:#26221b;fill-opacity:1;"><g transform="translate(902.706162, 622.852741)"><path style="stroke:none" d="M 29.34375 -22.328125 L 10.851562 -22.789062 L 10.925781 -25.671875 L 29.15625 -25.222656 L 29.253906 -29.03125 L 6.171875 -29.601562 L 5.914062 -19.097656 L 29.25 -18.519531 Z M 32.699219 -12.847656 L 32.796875 -16.65625 L 2.023438 -17.417969 L 1.929688 -13.609375 L 14.875 -13.289062 L 14.820312 -11.105469 L 5.386719 -11.339844 L 5.300781 -7.75 L 24.015625 -7.289062 L 23.96875 -5.476562 L 5.292969 -5.9375 L 5.070312 3.050781 L 29.441406 3.652344 L 29.535156 -0.0078125 L 10.003906 -0.492188 L 10.054688 -2.453125 L 28.695312 -1.992188 L 28.910156 -10.757812 L 19.703125 -10.984375 L 19.753906 -13.167969 Z M 32.699219 -12.847656 "/></g></g><g style="fill:#26221b;fill-opacity:1;"><g transform="translate(933.477107, 623.61447)"><path style="stroke:none" d=""/></g></g><g style="fill:#26221b;fill-opacity:1;"><g transform="translate(938.798466, 623.746199)"><path style="stroke:none" d="M 8.355469 -23.589844 L 19.378906 -23.316406 L 19.476562 -27.273438 L 3.570312 -27.667969 L 3.007812 -4.847656 L 5.929688 -4.777344 C 11.847656 -4.628906 16.511719 -4.699219 21.675781 -5.496094 L 21.292969 -9.539062 C 16.875 -8.910156 12.835938 -8.75 7.988281 -8.796875 Z M 33.667969 -17.484375 L 28.710938 -17.609375 L 29.023438 -30.183594 L 24.140625 -30.304688 L 23.292969 3.832031 L 28.175781 3.953125 L 28.609375 -13.578125 L 33.566406 -13.453125 Z M 33.667969 -17.484375 "/></g></g><g style="fill:#26221b;fill-opacity:1;"><g transform="translate(969.576299, 624.508098)"><path style="stroke:none" d=""/></g></g><g style="fill:#26221b;fill-opacity:1;"><g transform="translate(974.897659, 624.639828)"><path style="stroke:none" d=""/></g></g><g style="fill:#26221b;fill-opacity:1;"><g transform="translate(980.225383, 624.771714)"><path style="stroke:none" d="M 7.097656 -22.03125 C 7.15625 -24.398438 9.003906 -25.792969 11.554688 -25.730469 C 14.105469 -25.667969 15.882812 -24.179688 15.824219 -21.8125 C 15.765625 -19.410156 13.917969 -18.011719 11.363281 -18.074219 C 8.8125 -18.136719 7.035156 -19.625 7.097656 -22.03125 Z M 20.523438 -21.699219 C 20.632812 -26.171875 16.867188 -29.523438 11.652344 -29.652344 C 6.472656 -29.78125 2.507812 -26.621094 2.398438 -22.144531 C 2.285156 -17.597656 6.089844 -14.28125 11.269531 -14.15625 C 16.484375 -14.027344 20.410156 -17.148438 20.523438 -21.699219 Z M 10.878906 -2.949219 L 28.484375 -2.515625 L 28.714844 -11.835938 L 6.226562 -12.390625 L 6.136719 -8.621094 L 23.8125 -8.179688 L 23.765625 -6.148438 L 6.121094 -6.585938 L 5.886719 2.921875 L 29.296875 3.5 L 29.390625 -0.273438 L 10.824219 -0.730469 Z M 29.007812 -23.632812 L 29.167969 -30.179688 L 24.289062 -30.300781 L 23.867188 -13.289062 L 28.75 -13.167969 L 28.910156 -19.640625 L 33.382812 -19.527344 L 33.484375 -23.523438 Z M 29.007812 -23.632812 "/></g></g><g style="fill:#26221b;fill-opacity:1;"><g transform="translate(1010.996328, 625.533443)"><path style="stroke:none" d="M 7.949219 -14.679688 L 18.269531 -14.425781 L 18.59375 -27.59375 L 3.394531 -27.96875 L 3.296875 -24.085938 L 13.691406 -23.828125 L 13.554688 -18.390625 L 3.238281 -18.644531 L 2.882812 -4.257812 L 5.617188 -4.191406 C 10.722656 -4.066406 15.050781 -4.070312 20.101562 -4.71875 L 19.832031 -8.722656 C 15.5625 -8.199219 11.894531 -8.105469 7.789062 -8.171875 Z M 25.953125 -30.296875 L 25.773438 -23.046875 L 20.1875 -23.1875 L 20.089844 -19.265625 L 25.675781 -19.128906 L 25.542969 -13.800781 L 19.886719 -13.941406 L 19.789062 -10.019531 L 25.449219 -9.878906 L 25.105469 3.878906 L 30.027344 4 L 30.871094 -30.175781 Z M 25.953125 -30.296875 "/></g></g><g style="fill:#26221b;fill-opacity:1;"><g transform="translate(1041.767273, 626.295172)"><path style="stroke:none" d="M 29.519531 -14.441406 L 10.4375 -14.914062 L 10.65625 -23.867188 L 29.484375 -23.398438 L 29.582031 -27.359375 L 5.871094 -27.945312 L 5.457031 -11.152344 L 29.425781 -10.558594 Z M 1.710938 -4.84375 L 1.613281 -0.847656 L 32.457031 -0.0859375 L 32.558594 -4.078125 Z M 1.710938 -4.84375 "/></g></g><g style="fill:#26221b;fill-opacity:1;"><g transform="translate(1072.538218, 627.056901)"><path style="stroke:none" d="M 30.648438 -30.144531 L 25.730469 -30.265625 L 25.292969 -12.550781 L 30.210938 -12.425781 Z M 22.609375 -17.871094 C 18.414062 -17.308594 14.785156 -17.25 8.5 -17.40625 L 8.558594 -19.808594 L 19.617188 -19.535156 L 19.847656 -28.855469 L 3.90625 -29.25 L 3.816406 -25.550781 L 14.949219 -25.277344 L 14.894531 -23.058594 L 3.835938 -23.332031 L 3.597656 -13.789062 L 6.558594 -13.714844 C 14.140625 -13.527344 18.285156 -13.5 23 -14.160156 Z M 12.222656 -0.4375 L 12.277344 -2.582031 L 29.957031 -2.144531 L 30.179688 -11.167969 L 7.46875 -11.730469 L 7.378906 -8.070312 L 25.097656 -7.632812 L 25.046875 -5.671875 L 7.367188 -6.109375 L 7.140625 3.101562 L 30.664062 3.683594 L 30.753906 0.0195312 Z M 12.222656 -0.4375 "/></g></g><g style="fill:#26221b;fill-opacity:1;"><g transform="translate(1103.309164, 627.81863)"><path style="stroke:none" d="M 19.527344 -17.390625 L 15.71875 -17.484375 C 16.601562 -20.238281 16.96875 -23.230469 17.050781 -26.445312 L 3.699219 -26.777344 L 3.601562 -22.894531 L 12.109375 -22.683594 C 11.351562 -16.039062 8.234375 -11.195312 1.328125 -7.292969 L 4.015625 -3.785156 C 8.894531 -6.476562 12.085938 -9.765625 14.105469 -13.601562 L 19.429688 -13.472656 L 19.042969 2.136719 L 23.59375 2.25 L 24.378906 -29.558594 L 19.832031 -29.671875 Z M 27.027344 -30.269531 L 26.183594 3.792969 L 30.804688 3.910156 L 31.648438 -30.15625 Z M 27.027344 -30.269531 "/></g></g><g style="fill:#26221b;fill-opacity:1;"><g transform="translate(1134.080109, 628.580359)"><path style="stroke:none" d="M 13.519531 -10.917969 C 14.699219 -10.664062 15.914062 -10.523438 17.246094 -10.492188 C 18.578125 -10.457031 19.839844 -10.539062 21.027344 -10.730469 L 20.867188 -4.21875 L 13.359375 -4.40625 Z M 17.605469 -24.953125 C 22.339844 -24.835938 25.472656 -22.832031 25.386719 -19.429688 C 25.304688 -16.066406 22.074219 -14.183594 17.339844 -14.300781 C 12.605469 -14.417969 9.511719 -16.457031 9.59375 -19.820312 C 9.679688 -23.222656 12.871094 -25.070312 17.605469 -24.953125 Z M 25.710938 -4.101562 L 25.917969 -12.421875 C 28.507812 -13.949219 30.121094 -16.351562 30.195312 -19.3125 C 30.335938 -24.894531 25.058594 -28.617188 17.699219 -28.796875 C 10.375 -28.980469 4.925781 -25.523438 4.785156 -19.941406 C 4.675781 -16.980469 6.167969 -14.503906 8.71875 -12.847656 L 8.511719 -4.527344 L 1.707031 -4.695312 L 1.609375 -0.738281 L 32.457031 0.0273438 L 32.554688 -3.929688 Z M 25.710938 -4.101562 "/></g></g><g style="fill:#26221b;fill-opacity:1;"><g transform="translate(1164.856315, 629.342218)"><path style="stroke:none" d=""/></g></g><g style="fill:#26221b;fill-opacity:1;"><g transform="translate(1170.177676, 629.473948)"><path style="stroke:none" d=""/></g></g><g style="fill:#26221b;fill-opacity:1;"><g transform="translate(1175.505393, 629.605834)"><path style="stroke:none" d="M 5.484375 0.484375 C 4.617188 0.460938 3.882812 0.140625 3.28125 -0.484375 C 2.675781 -1.117188 2.390625 -1.875 2.421875 -2.75 C 2.429688 -3.601562 2.753906 -4.328125 3.390625 -4.921875 C 4.023438 -5.523438 4.773438 -5.816406 5.640625 -5.796875 C 6.484375 -5.773438 7.207031 -5.445312 7.8125 -4.8125 C 8.425781 -4.1875 8.726562 -3.445312 8.71875 -2.59375 C 8.6875 -1.71875 8.347656 -0.976562 7.703125 -0.375 C 7.066406 0.21875 6.328125 0.503906 5.484375 0.484375 Z M 5.84375 -13.640625 C 4.976562 -13.660156 4.242188 -13.984375 3.640625 -14.609375 C 3.035156 -15.242188 2.75 -16 2.78125 -16.875 C 2.789062 -17.726562 3.113281 -18.453125 3.75 -19.046875 C 4.382812 -19.648438 5.132812 -19.941406 6 -19.921875 C 6.84375 -19.898438 7.566406 -19.570312 8.171875 -18.9375 C 8.785156 -18.3125 9.085938 -17.570312 9.078125 -16.71875 C 9.046875 -15.84375 8.707031 -15.101562 8.0625 -14.5 C 7.425781 -13.90625 6.6875 -13.617188 5.84375 -13.640625 Z M 5.84375 -13.640625 "/></g></g><g style="fill:#26221b;fill-opacity:1;"><g transform="translate(1183.256505, 629.797712)"><path style="stroke:none" d="M 11.9375 -10.515625 C 11.78125 -4.046875 9.875 1.453125 6.21875 5.984375 L 0.875 5.859375 C 1.8125 4.722656 2.664062 3.257812 3.4375 1.46875 C 4.21875 -0.320312 4.84375 -2.269531 5.3125 -4.375 C 5.789062 -6.476562 6.054688 -8.570312 6.109375 -10.65625 C 6.160156 -12.726562 6 -14.828125 5.625 -16.953125 C 5.257812 -19.078125 4.734375 -21.050781 4.046875 -22.875 C 3.359375 -24.695312 2.570312 -26.195312 1.6875 -27.375 L 7.03125 -27.25 C 10.457031 -22.5625 12.09375 -16.984375 11.9375 -10.515625 Z M 11.9375 -10.515625 "/></g></g></g></svg>